/* XPM */
static char *gunfire[] = {
/* columns rows colors chars-per-pixel */
"150 100 34 1",
"  c #202020",
". c #2C2C2C",
"X c #383838",
"o c #484848",
"O c #545454",
"+ c #646464",
"@ c #707070",
"# c #7C7C7C",
"$ c #980000",
"% c #A80000",
"& c #B00000",
"* c #C80000",
"= c #FC0000",
"- c #FC2020",
"; c #FC4040",
": c #FC5454",
"> c #FC5C5C",
", c #C87C4C",
"< c #FC7C7C",
"1 c #FCA470",
"2 c #FCFC54",
"3 c #8C8C8C",
"4 c #989898",
"5 c #A8A8A8",
"6 c #B4B4B4",
"7 c #FC9C9C",
"8 c #FCB8B8",
"9 c #C0C0C0",
"0 c #D0D0D0",
"q c #DCDCDC",
"w c #FCD8D8",
"e c #ECECEC",
"r c #FCFCFC",
"t c None",
/* pixels */
"tttttttttttttttttttttttttttttttttttttttttttttttttttttttttttttttttttttttttttttttttttttttttttttttttttttttttttttttttttttttttttttttttttttttttttttttttttttt",
"tttttttttttttttttttttttttttttttttttttttttttttttttttttttttttttttttttttttttttttttttttttttttttttttttttttttttttttttttttttttttttttttttttttttttttttttttttttt",
"tttttttttttttttttttttttttttttttttttttttttttttttttttttttttttttttttttttttttttttttttttttttttttttttttttttttttttttttttttttttttttttttttttttttttttttttttttttt",
"tttttttttttttttttttttttttttttttttttttttttttttttttttttttttttttttttttttttttttttttttttttttttttttttttttttttttttttttttttttttttttttttttttttttttttttttttttttt",
"tttttttttttttttttttttttttttttttttttttttttttttttttttttttttttttttttttttttttttttttttttttttttttttttttttttttttttttttttttttttttttttttttttttttttttttttttttttt",
"tttttttttttttttttttttttttttttttttttttttttttttttttttttttttttttttttttttttttttttttttttttttttttttttttttttttttttttttttttttttttttttttttttttttttttttttttttttt",
"tttttttttttttttttttttttttttttttttttttttttttttttttttttttttttttttttttttttttttttttttttttttttttttttttttttttttttttttttttttttttttttttttttttttttttttttttttttt",
"tttttttttttttttttttttttttttttttttttttttttttttttttttttttttttttttttttttttttt$$$ttttttttttttttttttttttttttttttttttttttttttttttttttttttttttttttttttttttttt",
"tttttttttttttttttttttttttttttttttttttttttttttttttttttttttttttttttttttttttt$$$ttttttttttttttttttttttttttttttttttttttttttttttttttttttttttttttttttttttttt",
"tttttttttttttttttttttttttttttttttttttttttttttttttttttttttttttttttttttttttt$$$ttttttttttttttttttttttttttttttttttttttttttttttttttttttttttttttttttttttttt",
"tttttttttttttttttttttttttttttttttttttttttttttttttttttttttttttttttttttttttt***ttttttttttttttttttttttttttttttttttttttttttttttttttttttttttttttttttttttttt",
"tttttttttttttttttttttttttttttttttttttttttttttttttttttttttttttttttttttttttt***ttttttttttttttttttttttttttttttttttttttttttttttttttttttttttttttttttttttttt",
"tttttttttttttttttttttttttttttttttttttttttttttttttttttttttttttttttttttttttt***ttttttttttttttttttttttttttttttttttttttttttttttttttttttttttttttttttttttttt",
"tttttttttttttttttttttttttttttttttttttttttttttttttttttttttttttttttttttttttt***ttttttttttttttttttttttttttttttttttttttttttttttttttttttttttttttttttttttttt",
"tttttttttttttttttttttttttttttttttttttttttttttttttttttttttttttttttttttttttt***ttttttttttttttttttttttttttttttttttttttttttttttttttttttttttttttttttttttttt",
"tttttttttttttttttttttttttttttttttttttttttttttttttttttttttttttttttttttttttt***ttttttttttttttttttttttttttttttttttttttttttttttttttttttttttttttttttttttttt",
"ttttttttttttttttttttttttttttttttttttttttttttttttttttttttttttttttttttttt$$$:::$$$tttttttttttttttttttttttttttttttttttttttttttttttttttttttttttttttttttttt",
"ttttttttttttttttttttttttttttttttttttttttttttttttttttttttttttttttttttttt$$$:::$$$tttttttttttttttttttttttttttttttttttttttttttttttttttttttttttttttttttttt",
"ttttttttttttttttttttttttttttttttttttttttttttttttttttttttttttttttttttttt$$$:::$$$tttttttttttttttttttttttttttttttttttttttttttttttttttttttttttttttttttttt",
"ttttttttttttttttttttttttttttttttttttttttttttttttttttttttttttttttttttttt&&&777&&&tttttt$$$$$$tttttttttttttttttttttttttttttttttttttttttttttttttttttttttt",
"ttttttttttttttttttttttttttttttttttttttttttttttttttttttttttttttttttttttt&&&777&&&tttttt$$$$$$tttttttttttttttttttttttttttttttttttttttttttttttttttttttttt",
"ttttttttttttttttttttttttttttttttttttttttttttttttttttttttttttttttttttttt&&&777&&&tttttt$$$$$$tttttttttttttttttttttttttttttttttttttttttttttttttttttttttt",
"tttttttttttttttttttttttttttttttttttttttttttttttttttttttttttttttttttt$$$***777***$$$$$$%%%$$$tttttttttttttttttttttttttttttttttttttttttttttttttttttttttt",
"tttttttttttttttttttttttttttttttttttttttttttttttttttttttttttttttttttt$$$***777***$$$$$$%%%$$$tttttttttttttttttttttttttttttttttttttttttttttttttttttttttt",
"tttttttttttttttttttttttttttttttttttttttttttttttttttttttttttttttttttt$$$***777***$$$$$$%%%$$$tttttttttttttttttttttttttttttttttttttttttttttttttttttttttt",
"ttttttttttttttttttttttttttttttttttttttttttttttttttttttttttttttttt$$$&&&---777---&&&:::***ttttttttttttttttttttttttttttttttttttttttttttttttttttttttttttt",
"ttttttttttttttttttttttttttttttttttttttttttttttttttttttttttttttttt$$$&&&---777---&&&:::***ttttttttttttttttttttttttttttttttttttttttttttttttttttttttttttt",
"ttttttttttttttttttttttttttttttttttttttttttttttttttttttttttttttttt$$$&&&---777---&&&:::***ttttttttttttttttttttttttttttttttttttttttttttttttttttttttttttt",
"ttttttttttttttttttttttttttttttttttttttttttttttttttttt$$$$$$tttttt***---:::222:::---***$$$ttttttttttttttttttttttttttttttttttttttttttttttttttttttttttttt",
"ttttttttttttttttttttttttttttttttttttttttttttttttttttt$$$$$$tttttt***---:::222:::---***$$$ttttttttttttttttttttttttttttttttttttttttttttttttttttttttttttt",
"ttttttttttttttttttttttttttttttttttttttttttttttttttttt$$$$$$tttttt***---:::222:::---***$$$ttttttttttttttttttttttttttttttttttttttttttttttttttttttttttttt",
"ttttttttttttttttttttttttttttttttttttttttttttttttttttt$$$*********777;;;:::222777:::---===%%%%%%$$$tttttttttttttttttttttttttttttttttttttttttttttttttttt",
"ttttttttttttttttttttttttttttttttttttttttttttttttttttt$$$*********777;;;:::222777:::---===%%%%%%$$$tttttttttttttttttttttttttttttttttttttttttttttttttttt",
"ttttttttttttttttttttttttttttttttttttttttttttttttttttt$$$*********777;;;:::222777:::---===%%%%%%$$$tttttttttttttttttttttttttttttttttttttttttttttttttttt",
"tttttttttttttttttttttttttttttttttttttttttttttttttttttttt***:::---777777888222888777:::---:::%%%ttttttttttttttttttttttttttttttttttttttttttttttttttttttt",
"tttttttttttttttttttttttttttttttttttttttttttttttttttttttt***:::---777777888222888777:::---:::%%%ttttttttttttttttttttttttttttttttttttttttttttttttttttttt",
"tttttttttttttttttttttttttttttttttttttttttttttttttttttttt***:::---777777888222888777:::---:::%%%ttttttttttttttttttttttttttttttttttttttttttttttttttttttt",
"tttttttttttttttttttttttttttttttttttttttttttttttttttttttt$$$%%%:::777222222rrr222222777:::===&&&ttttttttttttttttttttttttttttttttttttttttttttttttttttttt",
"tttttttttttttttttttttttttttttttttttttttttttttttttttttttt$$$%%%:::777222222rrr222222777:::===&&&ttttttttttttttttttttttttttttttttttttttttttttttttttttttt",
"tttttttttttttttttttttttttttttttttttttttttttttttttttttttt$$$%%%:::777222222rrr222222777:::===&&&ttttttttttttttttttttttttttttttttttttttttttttttttttttttt",
"tttttttttttttttttttttttttttttttttttttttttttttttttttttttt&&&***777222888222rrr222888:::;;;===***&&&tttttttttttttttttttttttttttttttttttttttttttttttttttt",
"tttttttttttttttttttttttttttttttttttttttttttttttttttttttt&&&***777222888222rrr222888:::;;;===***&&&tttttttttttttttttttttttttttttttttttttttttttttttttttt",
"tttttttttttttttttttttttttttttttttttttttttttttttttttttttt&&&***777222888222rrr222888:::;;;===***&&&tttttttttttttttttttttttttttttttttttttttttttttttttttt",
"ttttttttttttttttttttttttttttttttttttttttt$$$$$$$$$$$$&&&***>>>777222222222www222222222777;;;======******$$$$$$tttttttttttttttttttttttttttttttttttttttt",
"ttttttttttttttttttttttttttttttttttttttttt$$$$$$$$$$$$&&&***>>>777222222222www222222222777;;;======******$$$$$$tttttttttttttttttttttttttttttttttttttttt",
"ttttttttttttttttttttttttttttttttttttttttt$$$$$$$$$$$$&&&***>>>777222222222www222222222777;;;======******$$$$$$tttttttttttttttttttttttttttttttttttttttt",
"tttttttttttttttttttttttttttttttt$$$$$$$$$%%%******===>>>:::777222222222eee999eee222222222777777<<<<<<>>>;;;***%%%$$$$$$$$$tttttttttttttttttttttttttttt",
"tttttttttttttttttttttttttttttttt$$$$$$$$$%%%******===>>>:::777222222222eee999eee222222222777777<<<<<<>>>;;;***%%%$$$$$$$$$tttttttttttttttttttttttttttt",
"tttttttttttttttttttttttttttttttt$$$$$$$$$%%%******===>>>:::777222222222eee999eee222222222777777<<<<<<>>>;;;***%%%$$$$$$$$$tttttttttttttttttttttttttttt",
"tttttttttttttttttttt$$$$$$$$$%%%%%%***===::::::777222777222222222rrrwww999XXX999wwwrrr222222222222777777777777:::---***%%%%%%$$$$$$$$$tttttttttttttttt",
"tttttttttttttttttttt$$$$$$$$$%%%%%%***===::::::777222777222222222rrrwww999XXX999wwwrrr222222222222777777777777:::---***%%%%%%$$$$$$$$$tttttttttttttttt",
"tttttttttttttttttttt$$$$$$$$$%%%%%%***===::::::777222777222222222rrrwww999XXX999wwwrrr222222222222777777777777:::---***%%%%%%$$$$$$$$$tttttttttttttttt",
"tttttttttttttttttttttttttttttttt$$$$$$$$$******===>>>>>>777777777222222444OOO444222222222777777<<<>>>;;;===***%%%$$$$$$$$$tttttttttttttttttttttttttttt",
"tttttttttttttttttttttttttttttttt$$$$$$$$$******===>>>>>>777777777222222444OOO444222222222777777<<<>>>;;;===***%%%$$$$$$$$$tttttttttttttttttttttttttttt",
"tttttttttttttttttttttttttttttttt$$$$$$$$$******===>>>>>>777777777222222444OOO444222222222777777<<<>>>;;;===***%%%$$$$$$$$$tttttttttttttttttttttttttttt",
"ttttttttttttttttttttttttttttttttttttttttt$$$$$$$$$$$$======>>>222222222eeeqqq###222222222222777>>>======***$$$tttttttttttttttttttttttttttttttttttttttt",
"ttttttttttttttttttttttttttttttttttttttttt$$$$$$$$$$$$======>>>222222222eeeqqq###222222222222777>>>======***$$$tttttttttttttttttttttttttttttttttttttttt",
"ttttttttttttttttttttttttttttttttttttttttt$$$$$$$$$$$$======>>>222222222eeeqqq###222222222222777>>>======***$$$tttttttttttttttttttttttttttttttttttttttt",
"tttttttttttttttttttttttttttttttttttttttttttttttttttttttt===:::777777777rrrqqq333777777777777222777>>>===tttttttttttttttttttttttttttttttttttttttttttttt",
"tttttttttttttttttttttttttttttttttttttttttttttttttttttttt===:::777777777rrrqqq333777777777777222777>>>===tttttttttttttttttttttttttttttttttttttttttttttt",
"tttttttttttttttttttttttttttttttttttttttttttttttttttttttt===:::777777777rrrqqq333777777777777222777>>>===tttttttttttttttttttttttttttttttttttttttttttttt",
"ttttttttttttttttttttttttttttttttttttttttttttttttttttt$$$:::777::::::555666666###+++:::>>>>>>777222:::===tttttttttttttttttttttttttttttttttttttttttttttt",
"ttttttttttttttttttttttttttttttttttttttttttttttttttttt$$$:::777::::::555666666###+++:::>>>>>>777222:::===tttttttttttttttttttttttttttttttttttttttttttttt",
"ttttttttttttttttttttttttttttttttttttttttttttttttttttt$$$:::777::::::555666666###+++:::>>>>>>777222:::===tttttttttttttttttttttttttttttttttttttttttttttt",
"ttttttttttttttttttttttttttttttttttttttttttttttttttttt$$$::::::******qqqrrrqqq555+++*********>>>::::::===tttttttttttttttttttttttttttttttttttttttttttttt",
"ttttttttttttttttttttttttttttttttttttttttttttttttttttt$$$::::::******qqqrrrqqq555+++*********>>>::::::===tttttttttttttttttttttttttttttttttttttttttttttt",
"ttttttttttttttttttttttttttttttttttttttttttttttttttttt$$$::::::******qqqrrrqqq555+++*********>>>::::::===tttttttttttttttttttttttttttttttttttttttttttttt",
"tttttttttttttttttttttttttttttttttttttttttttttttttt$$$***===$$$ttt555333#########444+++tttttt$$$***===***$$$ttttttttttttttttttttttttttttttttttttttttttt",
"tttttttttttttttttttttttttttttttttttttttttttttttttt$$$***===$$$ttt555333#########444+++tttttt$$$***===***$$$ttttttttttttttttttttttttttttttttttttttttttt",
"tttttttttttttttttttttttttttttttttttttttttttttttttt$$$***===$$$ttt555333#########444+++tttttt$$$***===***$$$ttttttttttttttttttttttttttttttttttttttttttt",
"tttttttttttttttttttttttttttttttttttttttttttttttttt$$$$$$ttttttttt555rrrqqq555333+++OOOtttttttttttt$$$$$$$$$ttttttttttttttttttttttttttttttttttttttttttt",
"tttttttttttttttttttttttttttttttttttttttttttttttttt$$$$$$ttttttttt555rrrqqq555333+++OOOtttttttttttt$$$$$$$$$ttttttttttttttttttttttttttttttttttttttttttt",
"tttttttttttttttttttttttttttttttttttttttttttttttttt$$$$$$ttttttttt555rrrqqq555333+++OOOtttttttttttt$$$$$$$$$ttttttttttttttttttttttttttttttttttttttttttt",
"ttttttttttttttttttttttttttttttttttttttttttttttttttttttttttttttttt555###XXXXXXXXX666OOOtttttttttttttttttttttttttttttttttttttttttttttttttttttttttttttttt",
"ttttttttttttttttttttttttttttttttttttttttttttttttttttttttttttttttt555###XXXXXXXXX666OOOtttttttttttttttttttttttttttttttttttttttttttttttttttttttttttttttt",
"ttttttttttttttttttttttttttttttttttttttttttttttttttttttttttttttttt555###XXXXXXXXX666OOOtttttttttttttttttttttttttttttttttttttttttttttttttttttttttttttttt",
"tttttttttttttttttttttttttttttttttttttttttttttttttttttttttttttt555qqqXXX@@@@@@@@@XXXOOOOOOttttttttttttttttttttttttttttttttttttttttttttttttttttttttttttt",
"tttttttttttttttttttttttttttttttttttttttttttttttttttttttttttttt555qqqXXX@@@@@@@@@XXXOOOOOOttttttttttttttttttttttttttttttttttttttttttttttttttttttttttttt",
"tttttttttttttttttttttttttttttttttttttttttttttttttttttttttttttt555qqqXXX@@@@@@@@@XXXOOOOOOttttttttttttttttttttttttttttttttttttttttttttttttttttttttttttt",
"tttttttttttttttttttttttttttttttttttttttttttttttttttttttttttttt555333rrrqqq555555@@@XXXOOOttttttttttttttttttttttttttttttttttttttttttttttttttttttttttttt",
"tttttttttttttttttttttttttttttttttttttttttttttttttttttttttttttt555333rrrqqq555555@@@XXXOOOttttttttttttttttttttttttttttttttttttttttttttttttttttttttttttt",
"tttttttttttttttttttttttttttttttttttttttttttttttttttttttttttttt555333rrrqqq555555@@@XXXOOOttttttttttttttttttttttttttttttttttttttttttttttttttttttttttttt",
"ttttttttttttttttttttttttttttttttttttttttttttttttttttttttttt555qqqrrr666333333333OOOOOO@@@OOOtttttttttttttttttttttttttttttttttttttttttttttttttttttttttt",
"ttttttttttttttttttttttttttttttttttttttttttttttttttttttttttt555qqqrrr666333333333OOOOOO@@@OOOtttttttttttttttttttttttttttttttttttttttttttttttttttttttttt",
"ttttttttttttttttttttttttttttttttttttttttttttttttttttttttttt555qqqrrr666333333333OOOOOO@@@OOOtttttttttttttttttttttttttttttttttttttttttttttttttttttttttt",
"ttttttttttttttttttttttttttttttttttttttttttttttttttttttttttt555666555rrrqqq555555######XXXOOOtttttttttttttttttttttttttttttttttttttttttttttttttttttttttt",
"ttttttttttttttttttttttttttttttttttttttttttttttttttttttttttt555666555rrrqqq555555######XXXOOOtttttttttttttttttttttttttttttttttttttttttttttttttttttttttt",
"ttttttttttttttttttttttttttttttttttttttttttttttttttttttttttt555666555rrrqqq555555######XXXOOOtttttttttttttttttttttttttttttttttttttttttttttttttttttttttt",
"ttttttttttttttttttttttttttttttttttttttttttttttt333444,,,111333qqqrrrrrr@@@oooooo#########XXXtttttttttttttttttttttttttttttttttttttttttttttttttttttttttt",
"ttttttttttttttttttttttttttttttttttttttttttttttt333444,,,111333qqqrrrrrr@@@oooooo#########XXXtttttttttttttttttttttttttttttttttttttttttttttttttttttttttt",
"ttttttttttttttttttttttttttttttttttttttttttttttt333444,,,111333qqqrrrrrr@@@oooooo#########XXXtttttttttttttttttttttttttttttttttttttttttttttttttttttttttt",
"tttttttttttttttttttttttttttttttttttttt###444444444444444,,,555qqqrrr@@@555OOO555ooo###555###XXXttttttttttttttttttttttttttttttttttttttttttttttttttttttt",
"tttttttttttttttttttttttttttttttttttttt###444444444444444,,,555qqqrrr@@@555OOO555ooo###555###XXXttttttttttttttttttttttttttttttttttttttttttttttttttttttt",
"tttttttttttttttttttttttttttttttttttttt###444444444444444,,,555qqqrrr@@@555OOO555ooo###555###XXXttttttttttttttttttttttttttttttttttttttttttttttttttttttt",
"ttttttttttttttttttttttttttttt###333444444444444444333333555000qqq555...         ...ooo555###OOOttttttttttttttttttttttttttttttttttttttttttttttttttttttt",
"ttttttttttttttttttttttttttttt###333444444444444444333333555000qqq555...         ...ooo555###OOOttttttttttttttttttttttttttttttttttttttttttttttttttttttt",
"ttttttttttttttttttttttttttttt###333444444444444444333333555000qqq555...         ...ooo555###OOOttttttttttttttttttttttttttttttttttttttttttttttttttttttt",
"ttttttttttttttttttttttt+++###333444333333######333444###555000rrr###               ooo###555OOOXXXtttttttttttttttttttttttttttttttttttttttttttttttttttt",
"ttttttttttttttttttttttt+++###333444333333######333444###555000rrr###               ooo###555OOOXXXtttttttttttttttttttttttttttttttttttttttttttttttttttt",
"ttttttttttttttttttttttt+++###333444333333######333444###555000rrr###               ooo###555OOOXXXtttttttttttttttttttttttttttttttttttttttttttttttttttt"
};
