/* XPM */
static char *Untitled[] = {
/* columns rows colors chars-per-pixel */
"105 105 64 1",
"  c #010101",
". c #040404",
"X c #080808",
"o c #0C0C0C",
"O c #111111",
"+ c #141414",
"@ c #181818",
"# c #1E1E1E",
"$ c #222222",
"% c #242424",
"& c #2B2B2B",
"* c #2C2C2C",
"= c #303030",
"- c #343434",
"; c #3A3A3A",
": c #3E3E3E",
"> c #424242",
", c #454545",
"< c #484848",
"1 c #4F4F4F",
"2 c #505050",
"3 c #545454",
"4 c #5B5B5B",
"5 c #5D5D5D",
"6 c #616161",
"7 c #666666",
"8 c #696969",
"9 c #6C6C6C",
"0 c #717171",
"q c #747474",
"w c #7A7A7A",
"e c #7E7E7E",
"r c #828282",
"t c #858585",
"y c #898989",
"u c #8D8D8D",
"i c #909090",
"p c #959595",
"a c #9A9A9A",
"s c #9C9C9C",
"d c #A2A2A2",
"f c #A5A5A5",
"g c #ABABAB",
"h c #ACACAC",
"j c #B2B2B2",
"k c #B5B5B5",
"l c #BBBBBB",
"z c #BDBDBD",
"x c #C1C1C1",
"c c #C6C6C6",
"v c #CACACA",
"b c #CCCCCC",
"n c #D3D3D3",
"m c #D5D5D5",
"M c #DBDBDB",
"N c #DCDCDC",
"B c #E1E1E1",
"V c #E4E4E4",
"C c #EAEAEA",
"Z c #EDEDED",
"A c #F2F2F2",
"S c #F7F7F7",
"D c #FBFBFB",
"F c None",
/* pixels */
"FFFFFFFFFFFFFFFFFFFFFFFFFFFFFFFFFFFFFFFFFFFDFFFDFDbFSFFFFFFFFFFFFFFFFFFFFFFFFFFFFFFFFFFFFFFFFFFFFFFFFFFFF",
"FFFFFFFFFFFFFFFFFFFFFFFFFFFFFFFFFFDFFFFFDFFFFDFFSn3FFFDFFDFFDFFDFDFFFFFFFDFFFFFFSFFFDFFFFFFFFFFFFFFFFFFFF",
"FFFFFFFFFFFFFFFFFFFFFFFFFFFFFFFFFFFFFFDFDDFFFFDSFw2FFDFFFDFFFFDFFFFDSFFFFFFFFFFFFDFDFDDFFFFFFFFFFFFFFFFFF",
"FFFFFFFFFFFFFFFFFFFFFFFFFFFFFFFFFFFFFFFFSFFDSFFFN>,DDFDDDFFFDFFFAFFFFFDDFDFFDFFFFFFDFFFFFFFFFFFFFFFFFFFFF",
"FFFFFFFFFDFFFFFFFFFFFFFFFFFFFFFFFFFFDFFDFFFDFAFSu1<ZFFFFFFFDDDFFFFDDFFFFFFDDFFFFDDFFDFFFFFFFFFFFFFFFFFFFF",
"FFFFFFFFFFFFFFFFFFDFFFFFFDFFFFFFFFFDFFFDFFSFFFDa<34mFFFDDFFFFFFFFDFFFDFDFFFFFFFFFFFDFFFFFFFFFFFFFFFFFFFFF",
"FFFFFFFFFFFFFFFFFFFFFFFDFFFFFFFFFFFFFFFFDFFFSt6,388MDFDDDFDDDDFDDFDSFFFFFFFFFFASFDCnFDFFFFFFFFFFFFFFFFFFF",
"FFFFFFFFFFFFFFFFFFFFFFFFFFFFFFFFFFFFFFFFFDFB<-<2qttnSFFFFFFFFFFCfbSFFDFFFFDDDSZcp73rDFDFFFFFFFFFFFFFFFFFF",
"FFFFFFFFFFFFFFFFFFFFFFFFFFFFFFFFFFFFDSDFFDD:#>4wqtafAFFFDFFFBfe87ZFFFFDDFSmfyewywyefFFFFFFFFFFFFFFFFFFFFF",
"FFFFFFFFFFDFDFFFFDFDDFFFDFDFFFDFDFFFS5zAFAw@$3qtriapgBVADDCxy0epeNFDDDFFNy0eishffdiBDFFFFFFFFFFFFFFFFFFFF",
"FFFFFFFDFSFFDFFFDDDFFDFFDFFFFDFFFDFSn2166%&@-0tipsrddsppddpppaadptgjhjhdspsdhlzllgaFFFFFFFFFFFFFFFFFFFFFF",
"FFFFFFFFFFADDFDDFFDDFDDDFDDDDFFDFFFSi9851>$%1tiaasgfkgdssdffgssasuytyefggklkzzzladzSFSFFFFFFFFFFFFFFFFFFF",
"FFFFFFFDFFFFFSFFDDFFSFFFFDFFDFFFDFBptwrw766,2spdgdsgsghjdgkhsipapuissdajjkklljjgteCFFFDFFFFFFFFFFFFFFFFFF",
"FFFFFFFFDFDpcSDFFDFFDFDFSFDDFDFDScqqifiputr<3dddgdaapfdsdgjgdaputiisahsdjhkgghharaFFSDFFFFFFFFFFFFFFFFFFF",
"FFFFFFFFFDFp,7ulVSDFFDFDFDFFFDCzwqyafshaudia1dsfsfdtpssisfgfdiriuyippddggadtyaiy8bSFFDFFFFFFFFFFFFFFFFFFF",
"FFFFFFFFFFFZq4795<amDFmpZDSZCn0etyihdhffsypihaspip9q220yuiafsppuptsaufsgdpauisiy0dcNBCBFFFFFFFFFFFFFFFFFF",
"FFFFFFFFFFSFl8er0%45iMq50uueqwruuajhhfddauiuwdiiauew9wrqttisauuaqisafsssssuaaupyr8qqw0sFFFFFFFFFFFFFFFFFF",
"FFFFFFFDFFFFAwuddy0e0788tpdipppsfghfdaaurt,90iuyitrtw099qetyuyuyuiassdfdsspppppuurrrtrhDFFDFFFFFFFFFFFFFF",
"FFFFFFFFFDFFDhaghltfsrrysfjhhgsghfdiittr90<1wreetewrq99989wrryyttiapadddsspapppuyrryrwdFDDFDFFFFFFFFFFFFF",
"FFFFFFFFFDFFFNifh9rjgsdpdfjhjgsgfayww095885-30e0eq9ww0975580qqeretuuiassdpaaasiiutrw97uDDFFDSDFFFFFFFFFFF",
"FFFFFFFFDFFFFAyfs-whlhgdfhhggfaapyw00862335>:89809899868645790qwqertypppdpappsuuyyyrrykDFFFFFFDFFFFFFFFFF",
"FFFFFFFFDFDFFFfjd,9jdgdsaaaiuyyrre9753<1:<<21585785565454111357000qetuiispaaipuiuurwrtdDFDFSDFFFFFFFFFFFF",
"FFFFFFFFDFSFFDckg54gigfpuuytreeq00641>==;>,1157467444334433235887890erypapsaipipuutruttpglAFFDFFFFFFFFFFF",
"FFFFFFFDFFFFFSMh9,1d52firyrrw0099843,:-=>;,<,545553343423444456667890eriupssaipaiiiturrrw7zFFFFFFFFFFFFFF",
"FFFFFFFFFDFFFFCljq4g34spypyr08975522,>::;<<:,156453232353244347557779wettuasaipaippyytutt8xFDFFFFFFFFFFFF",
"FFFFFFFFFDFFFFDld65f7qapu90995533111<>>:>11<>:154514342333354655655780eruiiaiippppityyutr9vFFFFFFFFFFFFFF",
"FFFFFFFDFFFFFFFbf2egyriyq<66543<21,<<>;::,231>-23412135334444366654679qetyupiiaapppyiiait8cDFFDFFFFFFFFFF",
"FFFFFFFFFFFDDFDvf0usauyrq>65332,1<><<>:&%,43<,>*>@o54:1543566:35754158qertuppppapppusaaat7nFFFFFFFFFFFFFF",
"FFFFFFFFFDFFFFDz7,6ai070q3641<,<,,<<<,,:O#,2,%oX.X.XXo.X &8e7%444454458wwtupasaaaapupipay9MFFDFFFFFFFFFFF",
"FFFFFFFFFFFFFFDh0>5yy9887752,,,,:,1,<3>:o.+O.XX    X     .Xo%+166824267qqeyasfdsaaietyasp0NFFDFFFFFFFFFFF",
"FFFFFFFFFFDDFFDfp21trw48231<>>>::,<>33=+  .     X. .. ... . X &885543380wrisffffspaupafdi9bFFDFFFFFFFFFFF",
"FFFDFFFFFFDFFDAsu3>yqq55>->>;-;;><,<3>+...  ....   ...     .. .+46<-3470rypdfdgsppiudspsp7zDFFFFFFFFDFFFF",
"FFFFFFFFFFFFZbjay8:eq751;&><>>;:,,,32&   .        .   .. . . . ...X>1369rupdffhggfsidssds9zDFDFFFFFFFFFFF",
"FFSFFDFDFBlguippp2,e0531:$=;1>:><142#.                  .   . .X ..:<<37wyssggjjlgfafsspirgFFFFFFFDFDDDFF",
"FFFFDFFFNrqrit88t0195531,-=,:<,,35-X...                .   .    .. .,2370tafjxzccljfgdgssugFFSFDFSFFFFFFF",
"FDFFDFFDDzeau057eq2964,11;;<,,,38-O  .                   ..  .    o.>157qtpdjvxmbcxjhfgdapgVZCAMNmFSFFDFF",
"SFFFFFFFSFhutwewr056632<1:,,<,35,... .                 . .. .. .. ...@330eyslvmNMmnlkgffyyrwwq9rqaDFSDFFF",
"DFDFDFFFDFdruyyeq8434231;:;<<,59O .   .                         X  X o<870esjvNCZCBvxjdfypuwryewibFFFFFFF",
"FDDFDFSFFv0ruttq861442<<::-,1353X. ..                   .  .   .X ... Oe50qpscMCAAVmclgauiyyiuuptjSFFDDFF",
"FFFFFMlat5qysyywq955431,21:>251XX  . ..                .   .    . X  .X3889uaznNCZVMcjduuyruapiyulFFFFFFF",
"SFFSDr24589uiytwq7743211,:@<27X. .. X                   . .    ... ... @r89tshvNVCCNzsiiyyytpsusyiADFFDFF",
"DFFFDB7488qeyrer0>14221,1>$,4%X. .  .                . ..   .. . ......X,q6wufzmNZVxfaiyyyyytiyit7kFFFDFF",
"FDDFFc2480ettw9q013421<3<=$>,@    .  . ..   .        .     .........X...+9w0wdjvNBCzjspuyttyyuupu9wVSFFFF",
"FDFDb4250wtttwqq95442<11<,;>@.....   .    .   .. . .  .  ..  .. .......XX,08ruhbmCNNvzdaiuuuuupyiy00MFFFF",
"SFSA0468qwreree09855311<1111o X..   ...   .  .     . ... ..............X #>70rdcbBNVNbkjsauiuiasypymDFFFF",
"FDSw59wwyrytrew9885331<11<33+   ...      .   .   .. .. ...........X...XXoo42wyshlmnNvbzxfdisiiappzAFFDFFF",
"FVw7tttyiyyttew88854311<2144O...  ..  ..  ..     . . ...............X..X o479tufllMnMxccjfpgapaubFFDDFDFF",
"nw0wiiiuurrweww8776533222333OX. ... .   .    ... . ............X.X.X.X.XOo39qqugjlbNMbvxjsadpiaaCFDFFFDFF",
"Ahipuiiuitteeww9865514223551. ..... .  ...... .... .........X.X.X...X..XoO-880udhzvNNbnlkiipiiaxFFFDFDFFF",
"FFVitewwurree0w965535543344>XX .. .. ...  .. ................XX...XXXXoo.O+660udfjxcbnnchdiutyyVFFFFDFFFF",
"SFFZteututwwewe853355324132< ....  ............X..........X.X..XX..XXXXX+X#w6wrdfhlcbnblhdsptuyzAFDFFFDFF",
"FFFFSxjprrrrrw946556314,,336o....... ........X...X...X.XX.XXXXXXXX..XXooX+@w7qysfkxbNNBzjddityyzDFDFFFFFF",
"FDFSDDDxtertrq9887661,<><315O..........XXX.XXX.XXXXXXXXXXXXoXoXoooXooooXOXO0qydjlcMMBVVckfgiuyaVFFDFFDFFF",
"FDDFFFFxuttte0qq7663<,>12435#...........X.X..XXoXXXoXoXooooooooooooOOoO+X+O-eiszxnBBVNBxhhhpiepDFDFFFFDFF",
"SFFAFDDiryuytre0875123122343#....X.......X.XXXXXoooooOoOOoOoooooooOooOoOO+O&,dgxcvVVCBmcjjhspwdDDFFFFFDFF",
"DDFFFFnaspiuyeeq0865551411,;o XX...X.XX.X.XXooooooooOoOooOoOOOoOoOoOOoOOo@#ggsdcbnBBCBmvljggfixFFFDDFFFFF",
"FFFFFSFDDMmnlir18q75667634<=O....X...X.X.XXXooOooooooOOoOoOoOOoOOOOOOOOOO++ijdslbnMnCVNvlgffdpbFFDFFDDFFF",
"FFFFFFFFFFDFSuw20098878845353X..X..XXXXXXoooXooooOOoOoOOoOOoOoOOOooOOOOOo+:lgyuglvbMBNmvzffgiasFFFFFFFFFF",
"FFFFFFFDFFDFSiq,qw067798656w0+XXXX.oX.XXXoooooOooOOOoOOoOoOOOoOOOOoOOOOo#O7gksusjnmMNnmvkjgssiaDDFFFFFFFF",
"FFFFFFFFDFFDkrw4qq700870779yi,OX.XXoXXoooOoooOoOOooOOOOOOOOOOOOOOOOOOOO+o<ufgidlxmnMVbclxfdsaupFFFFFFFFFF",
"FFFFFFFFDFFFla730qqe09q8q00pa6 XXXX.XoooooOoooOoOOOoOOOOOOO+OOOOOOOOOOO+#cnjlggxzcnNMbmxzkffsuxDFFFFFFFFF",
"FFFFFFFFFFDFAkq4qtrr77qw000efk&XXooXXOXOoOoOOOoOOOOOOO+OOO+OO++OOOOOOOO@2CAzhdkvbvnmbclvklhgdjSFFFFFFFFFF",
"FFFFFFFFFDFDFsiwytww88800q0wsj;X.XooXOooOooOoOOOO++OOO+++OO++OOOOO+OOOOO6vnzjgvNZBBCNMzxjjhgxSFFFFFFDFFFF",
"FFFFFFFFFFFFFjuetew00weq9qeqijt@XXOooOoOoOOOO+OOOOO+++OO++++OO+OO++O++++*pclhlnCCCSBxlccjxznDFDFFFFFFFFFF",
"FFFFFFFFFFFDDFceqqrreqwwwetersz=OX+OXOOOoOOO+O+OOO++OO+++O++O++OO++O+++-8ahzxcVMZDZVmbvxlkBFFDFFFFFFFFFFF",
"FFFFFFFFFFFFDFlqeryurtrreytttis-oO+o++XO+++++o@+++O+++O+++OO+++++O@OO@@$7ukznMVCASCMmzkkkkgxDFFFDFFDFDDFF",
"FFDFFFFDDFDFFFaeyettyiqwt7epyrw74O+o@X+OOOOO@@+++++++++++O++O++O@@O+@$45eugvNCZSSSCNmljhgffikSDFFFDFDSFFF",
"FFFFFFFFFFDFSS7uyyppuiypreuttiqya<o+o+#+@@#++@O+++++++++++O++++++O@#;raaisdbMCSDSDCVnzkjgipspfDDFFDDFFDFF",
"FFFFFFFFFFFFFv:wypupppssiuiapiutud;O#OoOO+@@O@@+++++++++++++++++@+o<axlkadgnNCSDDFZVnxzjgsiuuthFFDFFDFDFF",
"FFFFFFFFSFFAFi;7typsyugssryfpsuiafi$+@+@@++@@+@++@+++++++@+++++@@@%qnNzhagzVCZDDDFAVbzlgdaatturmFFDFDSFFF",
"FFFFFFFDFFFFmt:*tuiitaagd8pgs9rpddss=O#O##++#O++@@++@++++++@+@+@@@9MCbgsdxMCCSFDDDZBbzkdiuiuyetumFFFFFFFF",
"FFFFFFFSFFDFft:=8wuitsghudrhht10dfdsgj8%o@++#+#++@@@@@@+@+@+@@+@>aNCmhhdlMVCBSFFDACMnkjfiirqyeeepmFDSFFFF",
"FFFFDFFFFFDFCVMrweeypsgjhasggyiw8sfdffz0$@#+#@@@@@@@@@@@+@+@@@@1xAVnzghkvVCZVFFDDAVnvkhdprrwwydfabFFFFFFF",
"FFFFFFFFDFFFDFS59eq0irdjhgkjkfkfw0hgsghlu:$$+#+$+@@@@++#+@#%%;9nMNzlhzxjnZDAZSFSSSNnkjhfayravZDFFDFFFFFFF",
"FFFFFFFFDFDFFFDq0ur0ysdhgtykxxxkkqylgfgzxnfyr$@@$$##+#%$=5pxclnbchglbbMBCADDDFDDABNxkgsfznBADFFFFFFFFFFFF",
"FFFFFFFFFFDFFFDiqq59etudhazjdhxxfa7xzjjhlbjkg51tfsaaaashxMBACxlhfjklmZCZADFFFDCCBMmvhgjMAFFFFFFFFFDFFFFFF",
"FFFFFFFFFFFFFDD4374re158rtgishbvfrwacklxzjxvkjjzMmNBNMnbCFSSNljdkxmkNDDSSFFSDFSBNmxjffBFFFDDFFFFFFFFFFFFF",
"FFFFFFFFFFFFFFA<300ew0epuasdu0yw998wbzcczjMzxzbmBBDDSAVZCCCBvjccmMmCCFSDSFFDDSVnbxxfgcFFFFFFFFFFFFFFFFFFF",
"FFFFFFFFFFFFDFb299q99r0tqq66rer94sdqzvvMvzMcmnxvbbVNBVVNmBVBncmNCNZAAAASASFFFVbcllldfAFFFFFDDFDFFFFFFFFFF",
"FFFFFFFFFFDFFFs7q890084e3,46yhg6vlk5zbbNbMmbbbzcvcMnMMVBBACBVNVSCCZCNFSFDAZAZBbcllssjFDFFFFFFFFFFFFFFFFFF",
"FFFFFFFDFFDFFD91390q94383:3wwhadknxeiNbBvVNMNxmbmbMNCNVACAAZAAAZACAACSASDSZBNmbhkhdjFDFFFFFFDFFFFFFFFFFFF",
"FFFFFFFFFFDFFABMgeqr839544y6pi80lcxpwNNVnAVBBMVNMMASCbAADSDZZZCNASDSDFDSDZVnbklggashSFFFFFFFFFFFFFFFFFFFF",
"FFFFFFFFFFFFFFSDFDSVhw66081<u910kxvztvCxMSVBVNCCVZAAAvmZSSDSDDSADSSZZSASCNNbxgfcBBCZFFDFFFFFFFFFFFFFFFFFF",
"FFFFFFFFFFFFFFFSFFFFSDSxr9eqfy2pzzzvikVzmCMBVCCAASSDFAAAFDFDFFSFFSSVCAZVmnmchsixDFFFDDFFFFFFFFFFFFFFFFFFF",
"FFFFFFFFFFFFDDFFFDFFDFDDDbdpa6fgjljlgaxNvBBVZZCACVASSFDSFFSSSDZAZCVmnMMMxzzlfaidDFDFFFFFFFFFFFFFFFFFFFFFF",
"FFFFFFFFFDFFFFFFDFFFFFFDFSFSCvphgjjjkrlBxVVBVBCZMVSAZSZADSACZZCZVNMvcvvckjhfssuiFFFFFFFFFFFFFFFFFFFFFFFFF",
"FFFFFFFFFDFFFFFFDFFDFDFFFFFFFChddfghg9cmlNbMMnBBnVCZDCCVZZVCCZVBnczlzkkkhhfdppypFDFSDDFFFFFFFFFFFFFFFFFFF",
"FFFFFFFFFFFDFFFDFFDDFFFFFDDFFFaglksgpwjblbxnnnmnbNBbMMNMNNmNBCNMvlhlxjhgffsaiuypDFFFFFFFFFFFFFFFFFFFFFFFF",
"FFFFFFFFDFFFFFFFFDFFDFFDFFFFFDnADCaptpszfcxxxbzlbcNzkbMnnbcnmMvcxjfhldfssapputtdSFDFFFDFFFFFFFFFFFFFFFFFF",
"FFFFFFFFFFFFFFFFFFFFFFFFFFFFFFFFDDpeggtkjkxkxxkkzcxbbnvvmmcbbcckhssfdippikiityyzSFFFDFFFFFFFFFFFFFFFFFFFF",
"FFFFFFFFFFFFFFFFFFFFFFFFFFFFFFFFFDzpqtrkjzkjjlggkxzxxclcjbcxlxzlggsaaupayvANMMnZFDDFFFFFFFFFFFFFFFFFFFFFF",
"FFFFFFFFFFFFFFFFFFFFFFFFFFFFFFFFFDle,5wghlfgfhsdhzlzzkjhxkzbVCCVmmjairtyyjFFFSFFFFFFDFFFFFFFFFFFFFFFFFFFF",
"FFFFFFFFFFFFFFFFFFFFFFFFFFFFFFFFFFf2><0sghdasdaadhjkhgdfghgZFAFFAFFbftupyhDDDFFSFFFFDFFFFFFFFFFFFFFFFFFFF",
"FFFFFFFFFFFFFFFFFFFFFFFFFFFFFFFFSFz6640adfdiiiipsggjgfssdhAFFFFFFFDDFNfuyaDFFFFFDFDDFFDFFFFFFFFFFFFFFFFFF",
"FFFFFFFFFFFFFFFFFFFFFFFFFFFFFFFFFFViywqpafdpuiupafffddspfVFFDFFFFDFFFFSzpySDFFFFFFFDFFFFFFFFFFFFFFFFFFFFF",
"FFFFFFFFFFFFFFFFFFFFFFFFFFFFFFFFFFShiitppdsytyuyyaaaippjAFFAFFDFFFFFFFFFCzAFFAFDDFFFFSFFFFFFFFFFFFFFFFFFF",
"FFFFFFFFFFFFFFFFFFFFFFFFFFFFFFFFDFDxuyaiaia0eeeryiipuiiVFFFFDDFDFFSFFSFFFDFDSFFFDFDFFDFFFFFFFFFFFFFFFFFFF",
"FFFFFFFFFFFFFFFFFFFFFFFFFFFFFFFFFDFnpiatyhtrrwwtquuiiykFFFFFFFFFFFFFFFFFFFFFFFFFFFFFFFFFFFFFFFFFFFFFFFFFF",
"FFFFFFFFFFFFFFFFFFFFFFFFFFFFFFFFFFFNipawiAstrytwuMFCdiMFFFFFFFFFFFFFFFFFFFFFFFFFFFFFFFFFFFFFFFFFFFFFFFFFF",
"FFFFFFFFFFFFFFFFFFFFFFFFFFFFFFFFFFFNpssuhFFxiakSSFDDSNBFFFFFFFFFFFFFFFFFFDFFFFFFFFFFFFFFFFFFFFFFFFFFFFFFF",
"FFFFFFFFFFFFFFFFFFFFFFFFFFFFFFFFFDFnipppgFDFzSFFFFFFDSFFFFFFFFFFFFFFFFFFFFFFFFFFFFFFFFFFFFFFFFFFFFFFFFFFF",
"FFFFFFFFFFFFFFFFFFFFFFFFFFFFFFFDFFFmuiapzFDFFFFFFFDDFFDFFFFFFFFFFFFFFFFFFFFFFFFFFFFFFFFFFFFFFFFFFFFFFFFFF",
"FFFFFFFFFFFFFFFFFFFFFFFFFFFFFFFFDFDBsxMZFFFFFDFDDDFFFFFFFFFFFFDFFFFFFFFFFFFFFFFFFFFFFFFFFFFFFFFFFFFFFFFFF",
"FFFFFFFFFFFFFFFFFFFFFFFFFFFFFFFFFFDSvSFFFSFFDFDFDFFFFFFFFFFFFFFFFFFFFFFFFFFFFFFFFFFFFFFFFFFFFFFFFFFFFFFFF",
"FFFFFFFFFFFFFFFFFFFFFFFFFFFFFFFFFFFFVFFFSFFDFFFFSFFFFDFFFFFFFFFFFFFFFFFFFFFFFFFFFFFFFFFFFFFFFFFFFFFFFFFFF"
};
